        <svg width="80" height="60" viewBox="0 0 86 65" fill="none" xmlns="http://www.w3.org/2000/svg">
                    <path d="M26.361 62.831C25.8094 62.656 25.3885 62.4956 25.0836 62.357C21.6651 60.8986 21.1425 56.8659 20.9321 53.5697C20.4385 46.5107 20.453 39.4736 20.4603 32.4146V31.9187C20.4458 27.237 20.5256 22.9855 20.4313 18.2163C20.3006 14.9712 20.0974 11.4053 18.8055 8.43727C15.5974 2.18042 6.48139 0.838622 0.152418 0L0 1.5314C9.52975 2.14396 9.39911 7.5476 9.37007 15.4307C9.32652 17.0131 9.5733 30.1467 9.58781 32.0281V32.5386C9.60233 34.1064 9.73297 42.7041 9.73297 44.0459C9.762 48.713 9.13782 54.1896 11.9467 58.2514C15.8805 62.7946 21.9409 64.45 28.1102 64.8219V64.8073L28.2989 63.1373C27.5659 63.1082 26.9199 62.9988 26.3683 62.8238L26.361 62.831Z" fill="#F2F2F2"></path>
                    <path d="M54.9143 62.8316C54.3627 62.6566 53.9418 62.4961 53.6369 62.3576C50.2184 60.8991 49.6958 56.8664 49.4854 53.5703C48.9918 46.5113 49.0063 39.4741 49.0136 32.4151V31.9192C48.9991 27.2375 49.0789 22.9861 48.9845 18.2169C48.8539 14.9718 48.6507 11.4058 47.3588 8.43779C44.1507 2.18823 35.0419 0.839143 28.713 0.0078125L28.5605 1.53921C38.0903 2.15177 37.9597 7.55541 37.9306 15.4385C37.8871 17.0209 38.1338 30.1545 38.1484 32.0359V32.5464C38.1629 34.1142 38.2935 42.7119 38.2935 44.0537C38.3226 48.7208 37.6984 54.1974 40.5072 58.2593C44.441 62.8024 50.5015 64.4578 56.6708 64.8297V64.8151L56.8595 63.1451C56.1264 63.116 55.4805 63.0066 54.9288 62.8316H54.9143Z" fill="#F2F2F2"></path>
                    <path d="M83.3538 62.8316C82.8022 62.6566 82.3812 62.4961 82.0764 62.3576C78.6579 60.8991 78.1353 56.8664 77.9248 53.5703C77.4313 46.5113 77.4458 39.4741 77.453 32.4151V31.9192C77.4385 27.2375 77.5184 22.9861 77.424 18.2169C77.2934 14.9718 77.0901 11.4058 75.7982 8.43779C72.5902 2.18823 63.4814 0.839143 57.1524 0.0078125L57 1.53921C66.5297 2.15177 66.3991 7.55541 66.3701 15.4385C66.3265 17.0209 66.5733 30.1545 66.5878 32.0359V32.5464C66.6023 34.1142 66.733 42.7119 66.733 44.0537C66.762 48.7208 66.1378 54.1974 68.9467 58.2593C72.8805 62.8024 78.9409 64.4578 85.1102 64.8297V64.8151L85.2989 63.1451C84.5659 63.116 83.9199 63.0066 83.3683 62.8316H83.3538Z" fill="#F2F2F2"></path>
         </svg>
